<svg xmlns="http://www.w3.org/2000/svg" xmlns:xlink="http://www.w3.org/1999/xlink" width="75.19999694824219" height="110.24501037597656" viewBox="-0.19999998807907104 -0.39999961853027344 75.19999694824219 110.24501037597656" version="1.1" xml:space="preserve">
  <defs/>
  <g>
    <title>Group</title>
    <desc>Created with Sketch.</desc>
    <g id="Page-1" stroke="none" stroke-width="1" fill="none" fill-rule="evenodd">
      <g id="kakaC" fill-rule="nonzero">
        <g id="Group">
          <path d="M53.9,68.1 C58.2,73.2 56.6,71.1 63.2,78.6 C65.1,80.7 67.8,86.6 64.1,88.9 C60.2,91.4 56.2,89.5 51.1,82.1 C48.7,78.7 47.2,75.9 46.2,73.9 C45.7,73.1 45.4,72.4 45.2,71.9 C45.2,71.8 45.1,71.7 45.1,71.6 C44.9,71.1 44.7,70.6 44.6,70.3 C43.4,66.2 49.7,63.1 53.9,68.1 Z" id="Shape" fill="#DB373C"/>
          <path d="M29.4,104.6 C30,104.3 39.6,99 40.5,98.6 L30.7,89.7 C30.3,90.3 29.4,90.8 28.9,91.4 C26.3,94 23.5,96.6 23.5,96.6 C22.6,97.1 21.2,97.8 21.2,97.8 C19,98.8 22.5,103.4 22.5,103.4 C25.8,107.8 27.2,108.7 27.8,108.9 C28.2,109 28.7,108.9 29.3,108.5 C30.3,107.8 30,106.4 29.8,105.5 C29.6,104.9 29.4,104.6 29.4,104.6 Z" id="形状" fill="#DB373C"/>
          <g id="形状_2_" transform="translate(28.000000, 61.000000)">
            <path d="M26,17.9 C25.5,16.2 23.4,8.9 22.7,7.1 C20.4,7.9 16.6,8.5 12.3,8.5 C10.4,8.5 8.6,8.4 7,8.2 C7,8.2 4.8,8.2 4.2,7.4 C4,7.4 3.8,7.3 3.6,7.3 C3.5,9.3 3.1,14.6 2.7,18.4 C2.5,20.9 1.2,23.4 0.8,25.3 C-0.5,32.4 7.4,38.7 14.9,37.9 C15.3,37.9 16.5,37.7 16.9,37.7 C19.2,37.3 21.4,36.4 23.2,35.1 C24.8,33.6 26.1,31.5 26.7,28.9 C27.6,26.1 27.3,22.1 26,17.9 Z" id="Shape" fill="#F4474D"/>
            <g id="Group" transform="translate(3.000000, 0.000000)">
              <path d="M18.1,3.3 C16.3,0.7 13.2,0.2 6.5,1.2 C4.8,1.4 3.1,2.2 2,3.3 L1.9,3.4 C1.8,3.5 1.6,3.8 1.4,4 C3.2,4.1 5.2,4.2 7.2,4.2 C11.6,4.1 15.3,3.8 18.1,3.3 Z" id="Shape" fill="#DB373C"/>
              <g transform="translate(0.000000, 3.000000)" id="Shape">
                <path d="M22.9,14.5 C22.4,12.8 20.3,5.5 19.6,3.7 C17.3,4.5 13.5,5.1 9.2,5.1 C7.3,5.1 5.5,5 3.9,4.8 C1.3,14.7 1.4,30.6 16.6,29 C19.6,28.7 22,27.4 23.5,25.6 C24.4,22.8 24.2,18.7 22.9,14.5 Z" fill="#FF555F"/>
                <path d="M19,2 C18.9,1.8 18.8,1.6 18.8,1.5 C18.6,1.1 18.4,0.6 18.1,0.3 C15.3,0.8 11.5,1.2 7.3,1.2 C5.2,1.2 3.3,1.1 1.5,1 C1.2,1.4 0.9,1.9 0.8,2.4 C0.7,2.7 0.6,3.2 0.6,3.6 C0.6,3.6 0.5,4.2 0.5,4.5 C1.1,5.4 7.3,5.5 9.2,5.5 C13.5,5.5 17.3,4.7 19.6,3.8 C19.5,3.2 19.2,2.6 19,2 Z" fill="#DB373C"/>
              </g>
            </g>
          </g>
          <path d="M52.6,91.7 C53,92.4 58.4,100 58.8,99.8 C58.7,99.9 60.9,98.8 61.8,100.1 C62.3,100.6 62.4,101.1 62.3,101.5 C62.2,102.1 61.3,103.6 57.1,107.1 C57.1,107.1 52.7,110.8 51.6,108.7 C51.6,108.7 50.9,107.4 50.3,106.5 C50.3,106.5 47.6,103.8 44.9,101.3 C44.3,100.8 42.6,97.7 42,97.3 L52.6,91.7 Z" id="形状_3_" fill="#F4474D"/>
          <g>
            <polygon id="矩形_2_8_" fill="#C2B5B5" points="37 7.5 39.3 7.5 39.7 11.9 36.7 11.9"/>
            <path d="M72.6,31 L66.7,31 L66.7,49.2 L72.6,49.2 C73.6,49.2 74.5,45.1 74.5,40.1 C74.5,35.1 73.7,31 72.6,31 Z" id="形状_4_" fill="#D9262C"/>
            <path d="M67.7,56.8 C67,58.9 65.1,62.2 60.1,63.5 C56,64.6 49.2,65.7 38.2,65.7 C27.1,65.7 20.4,64.6 16.3,63.5 C11.3,62.2 9.4,58.8 8.7,56.8 C7.5,53.4 6.2,47.7 6.2,39.8 C6.2,30 7.1,24.2 8.2,20.8 C9.2,17.7 11.3,15.8 14.9,14.6 C19.8,13 28.2,10.7 38.2,10.7 C48.2,10.7 56.6,13 61.5,14.6 C65.2,15.8 67.2,17.7 68.2,20.8 C69.3,24.1 70.2,30 70.2,39.8 C70.2,47.7 68.9,53.4 67.7,56.8 Z" id="矩形_1_拷贝_8_" fill="#FF555F"/>
            <path d="M24.2,62.9 C19.2,61.6 17.3,58.2 16.6,56.2 C15.4,52.8 14.1,47.1 14.1,39.2 C14.1,29.4 15,23.6 16.1,20.2 C17.1,17.1 19.2,15.2 22.8,14 C25.8,13 28,11.8 33.1,11 C25.3,11.6 18.8,13.4 14.8,14.7 C11.1,15.9 9.1,17.8 8.1,20.9 C7,24.2 6.1,30.1 6.1,39.9 C6.1,47.8 7.4,53.5 8.6,56.9 C9.3,59 11.2,62.3 16.2,63.6 C20.3,64.7 27.1,65.8 38.1,65.8 C45.4,65.8 50.8,65.2 54.8,64.6 C51.8,64.8 48.3,65.1 44.1,65.1 C33.1,65 28.3,63.9 24.2,62.9 Z" id="形状_5_" fill="#F4474D"/>
            <g id="形状_6_" transform="translate(36.000000, 12.000000)" fill="#F4474D">
              <polygon id="Shape" points="2.1 53.7 5.7 53.7 0.5 53.7"/>
              <path d="M16.8,0.3 C16.5,0.2 16.3,0.2 16,0.1 C16.3,0.2 16.5,0.3 16.8,0.3 Z" id="Shape"/>
            </g>
            <path d="M66.8,27.6 C66.5,26.6 57.9,22.6 45.3,22.6 L45.2,22.6 L45.1,22.6 C41.7,22.6 38.4,22.9 35.1,23.5 C25.1,25.3 24,26.7 23.6,27.6 C22.9,29.7 23,34.6 23.1,40.9 C23.1,46.3 24,52.9 24.6,53.5 C25.5,54.4 27.5,54.9 30.7,55.7 C33.4,56.4 37.9,57.3 45.1,57.3 L45.2,57.3 C52.5,57.3 57,56.4 59.7,55.7 C63,54.9 64.9,54.4 65.9,53.5 C66.5,52.9 67.3,46.3 67.4,40.9 C67.3,34.6 67.5,29.7 66.8,27.6 Z" id="形状_7_" fill="#600E12"/>
            <g id="椭圆_2_拷贝_9_" transform="translate(29.000000, 35.000000)" fill="#FFFFFF">
              <path d="M4.8,0.9 C8.3,0.9 10.8,4.8 8.4,8.5 C8.3,8.7 8.1,8.9 7.9,9 C4.2,11.5 0.3,8.9 0.3,5.4 C0.2,2.9 2.2,0.9 4.8,0.9 Z M23.6,2.6 C28.5,-1.9 34.4,3.5 31.1,8.5 C31,8.7 30.8,8.9 30.6,9 C26.9,11.5 23,8.9 23,5.4 L23,4 C23,3.5 23.2,3 23.6,2.6 Z" id="形状_8_"/>
            </g>
            <g transform="translate(33.000000, 0.000000)">
              <circle id="椭圆_1_8_" fill="#6F87ED" cx="5.1" cy="4.3" r="4.2"/>
              <circle id="椭圆_21_8_" fill="#FFFFFF" cx="7.2" cy="2.6" r="1.3"/>
            </g>
            <path d="M23.7,45 C25.8,45 27.5,45.8 27.5,46.9 C27.5,47.9 25.8,48.8 23.7,48.8 C21.6,48.8 19.9,48 19.9,46.9 C19.9,45.8 21.6,45 23.7,45 Z" id="椭圆_3_8_" fill="#FFD155"/>
            <path d="M66.9,45 C69,45 70.7,45.8 70.7,46.9 C70.7,47.9 69,48.8 66.9,48.8 C64.8,48.8 63.1,48 63.1,46.9 C63.1,45.8 64.8,45 66.9,45 Z" id="椭圆_3_拷贝_8_" fill="#FFD155"/>
            <g id="形状_9_" transform="translate(3.000000, 31.000000)">
              <path d="M4.1,18.2 C4.5,18.2 4.9,18 5.2,17.7 C4.8,18 4.3,18.1 3.8,18.2 L4.1,18.2 Z" id="Shape" fill="#F4474D"/>
              <path d="M4.1,0 L3.8,0 C4.5,0.1 5.1,0.3 5.6,0.7 C5.2,0.3 4.7,0 4.1,0 Z" id="Shape" fill="#F4474D"/>
              <path d="M6.9,0.8 C6.4,0.4 5.8,0.1 5.1,0.1 L4.7,0.1 L0.5,0.1 C-0.5,0.1 0.5,4.2 0.5,9.2 C0.5,14.2 -0.6,18.3 0.5,18.3 L4.7,18.3 L5.1,18.3 C5.6,18.2 6.1,18.1 6.5,17.8 C7.7,16.6 8.6,13.2 8.6,9.2 C8.6,5.4 8,2.2 6.9,0.8 Z" id="Shape" fill="#D9262C"/>
            </g>
            <path d="M0.3,40.1 C0.3,45.1 1.3,49.2 3.2,49.2 C5.2,49.2 6.4,45.1 6.4,40.1 C6.4,35.1 5.5,31 3.2,31 C1.2,31 0.3,35.1 0.3,40.1 Z" id="形状_10_" fill="#DB373C"/>
          </g>
          <g transform="translate(14.000000, 65.000000)" id="Shape">
            <path d="M12.1,3.7 C8,9 9.5,6.8 3.2,14.6 C1.4,16.8 -1.1,22.8 2.7,24.9 C6.7,27.2 10.6,25.2 15.5,17.6 C19.5,11.4 20.8,7.4 21.4,5.4 C22.6,1.4 16.2,-1.5 12.1,3.7 Z" fill="#DB373C"/>
            <path d="M11.2,5 C7.7,9.9 5.9,12.7 4.5,15.1 C3.4,17 1.5,21.5 4.4,23.3 C7,24.9 11.4,22.1 14.7,17.6 C18.5,12.5 20.6,8.6 21.1,7 C21.7,3.9 15.3,-0.9 11.2,5 Z" fill="#F4474D"/>
          </g>
        </g>
      </g>
    </g>
  </g>
</svg>